<?xml version="1.0" standalone="no"?><!DOCTYPE svg PUBLIC "-//W3C//DTD SVG 1.1//EN" "http://www.w3.org/Graphics/SVG/1.1/DTD/svg11.dtd"><svg t="1728550324798" class="icon" viewBox="0 0 1060 1024" version="1.1" xmlns="http://www.w3.org/2000/svg" p-id="4252" xmlns:xlink="http://www.w3.org/1999/xlink" width="207.03125" height="200"><path d="M182.857143 146.285714c0 26.294857-14.299429 49.700571-36.571429 62.866286V932.571429c0 9.728-8.557714 18.285714-18.285714 18.285714h-36.571429a18.797714 18.797714 0 0 1-18.285714-18.285714V209.152c-22.272-13.129143-36.571429-36.571429-36.571428-62.866286 0-40.557714 32.585143-73.142857 73.142857-73.142857s73.142857 32.585143 73.142857 73.142857z m841.142857 36.571429v436.004571c0 21.138286-13.129143 29.147429-29.696 37.705143-64.585143 34.852571-136.009143 66.304-210.870857 66.304-105.142857 0-155.428571-80.018286-279.990857-80.018286-90.843429 0-186.294857 41.142857-265.142857 83.419429A37.412571 37.412571 0 0 1 219.428571 731.428571c-20.004571 0-36.571429-16.566857-36.571428-36.571428V270.848c0-13.714286 6.838857-23.442286 17.700571-31.414857 13.714286-9.142857 30.281143-17.152 45.129143-24.576C317.696 178.285714 405.101714 146.285714 486.253714 146.285714c89.709714 0 160 29.696 239.433143 66.852572 16.018286 8.009143 32.585143 10.861714 50.285714 10.861714C865.682286 224 962.267429 146.285714 987.392 146.285714c20.004571 0 36.571429 16.566857 36.571429 36.571429z" fill="" p-id="4253"></path></svg>